<svg viewBox="0 0 900 500" xmlns="http://www.w3.org/2000/svg">
  <!-- 上顎の歯（右から左：18-11, 21-28） -->

  <!-- 右上顎 -->
  <!-- 18 大臼歯 -->
  <ellipse cx="64" cy="65" rx="13" ry="35" fill="white" stroke="black" stroke-width="0.8"/>
  <text x="64" y="22" font-size="11" text-anchor="middle" fill="#666" font-family="Arial">8</text>
  <circle cx="64" cy="118" r="8" fill="white" stroke="#999" stroke-width="0.8"/>

  <!-- 17 大臼歯 -->
  <ellipse cx="96" cy="65" rx="13" ry="35" fill="white" stroke="black" stroke-width="0.8"/>
  <text x="96" y="22" font-size="11" text-anchor="middle" fill="#666" font-family="Arial">7</text>
  <circle cx="96" cy="118" r="8" fill="white" stroke="#999" stroke-width="0.8"/>

  <!-- 16 大臼歯 -->
  <ellipse cx="128" cy="65" rx="13" ry="35" fill="white" stroke="black" stroke-width="0.8"/>
  <text x="128" y="22" font-size="11" text-anchor="middle" fill="#666" font-family="Arial">6</text>
  <circle cx="128" cy="118" r="8" fill="white" stroke="#999" stroke-width="0.8"/>

  <!-- 15 小臼歯 -->
  <ellipse cx="156" cy="65" rx="11" ry="35" fill="white" stroke="black" stroke-width="0.8"/>
  <text x="156" y="22" font-size="11" text-anchor="middle" fill="#666" font-family="Arial">5</text>
  <circle cx="156" cy="118" r="8" fill="white" stroke="#999" stroke-width="0.8"/>

  <!-- 14 小臼歯 -->
  <ellipse cx="184" cy="65" rx="11" ry="35" fill="white" stroke="black" stroke-width="0.8"/>
  <text x="184" y="22" font-size="11" text-anchor="middle" fill="#666" font-family="Arial">4</text>
  <circle cx="184" cy="118" r="8" fill="white" stroke="#999" stroke-width="0.8"/>

  <!-- 13 犬歯 -->
  <path d="M 198,30 L 200,38 L 199,42 L 199,100 L 219,100 L 219,42 L 218,38 L 209,30 Z" fill="white" stroke="black" stroke-width="0.8"/>
  <text x="209" y="22" font-size="11" text-anchor="middle" fill="#666" font-family="Arial">3</text>
  <circle cx="209" cy="118" r="8" fill="white" stroke="#999" stroke-width="0.8"/>

  <!-- 12 切歯 -->
  <path d="M 227,30 L 241,30 L 242,38 L 242,100 L 226,100 L 226,38 Z" fill="white" stroke="black" stroke-width="0.8"/>
  <text x="234" y="22" font-size="11" text-anchor="middle" fill="#666" font-family="Arial">2</text>
  <circle cx="234" cy="118" r="8" fill="white" stroke="#999" stroke-width="0.8"/>

  <!-- 11 切歯 -->
  <path d="M 249,30 L 263,30 L 264,38 L 264,100 L 248,100 L 248,38 Z" fill="white" stroke="black" stroke-width="0.8"/>
  <text x="256" y="22" font-size="11" text-anchor="middle" fill="#666" font-family="Arial">1</text>
  <circle cx="256" cy="118" r="8" fill="white" stroke="#999" stroke-width="0.8"/>

  <!-- 正中線 -->
  <line x1="272" y1="15" x2="272" y2="150" stroke="#999" stroke-width="1" stroke-dasharray="4,3"/>

  <!-- 左上顎 -->
  <!-- 21 切歯 -->
  <path d="M 281,30 L 295,30 L 296,38 L 296,100 L 280,100 L 280,38 Z" fill="white" stroke="black" stroke-width="0.8"/>
  <text x="288" y="22" font-size="11" text-anchor="middle" fill="#666" font-family="Arial">1</text>
  <circle cx="288" cy="118" r="8" fill="white" stroke="#999" stroke-width="0.8"/>

  <!-- 22 切歯 -->
  <path d="M 303,30 L 317,30 L 318,38 L 318,100 L 302,100 L 302,38 Z" fill="white" stroke="black" stroke-width="0.8"/>
  <text x="310" y="22" font-size="11" text-anchor="middle" fill="#666" font-family="Arial">2</text>
  <circle cx="310" cy="118" r="8" fill="white" stroke="#999" stroke-width="0.8"/>

  <!-- 23 犬歯 -->
  <path d="M 325,30 L 336,30 L 345,38 L 346,42 L 346,100 L 326,100 L 326,42 L 327,38 Z" fill="white" stroke="black" stroke-width="0.8"/>
  <text x="336" y="22" font-size="11" text-anchor="middle" fill="#666" font-family="Arial">3</text>
  <circle cx="336" cy="118" r="8" fill="white" stroke="#999" stroke-width="0.8"/>

  <!-- 24 小臼歯 -->
  <ellipse cx="360" cy="65" rx="11" ry="35" fill="white" stroke="black" stroke-width="0.8"/>
  <text x="360" y="22" font-size="11" text-anchor="middle" fill="#666" font-family="Arial">4</text>
  <circle cx="360" cy="118" r="8" fill="white" stroke="#999" stroke-width="0.8"/>

  <!-- 25 小臼歯 -->
  <ellipse cx="388" cy="65" rx="11" ry="35" fill="white" stroke="black" stroke-width="0.8"/>
  <text x="388" y="22" font-size="11" text-anchor="middle" fill="#666" font-family="Arial">5</text>
  <circle cx="388" cy="118" r="8" fill="white" stroke="#999" stroke-width="0.8"/>

  <!-- 26 大臼歯 -->
  <ellipse cx="416" cy="65" rx="13" ry="35" fill="white" stroke="black" stroke-width="0.8"/>
  <text x="416" y="22" font-size="11" text-anchor="middle" fill="#666" font-family="Arial">6</text>
  <circle cx="416" cy="118" r="8" fill="white" stroke="#999" stroke-width="0.8"/>

  <!-- 27 大臼歯 -->
  <ellipse cx="448" cy="65" rx="13" ry="35" fill="white" stroke="black" stroke-width="0.8"/>
  <text x="448" y="22" font-size="11" text-anchor="middle" fill="#666" font-family="Arial">7</text>
  <circle cx="448" cy="118" r="8" fill="white" stroke="#999" stroke-width="0.8"/>

  <!-- 28 大臼歯 -->
  <ellipse cx="480" cy="65" rx="13" ry="35" fill="white" stroke="black" stroke-width="0.8"/>
  <text x="480" y="22" font-size="11" text-anchor="middle" fill="#666" font-family="Arial">8</text>
  <circle cx="480" cy="118" r="8" fill="white" stroke="#999" stroke-width="0.8"/>

  <!-- 上下の区切り線 -->
  <line x1="30" y1="250" x2="870" y2="250" stroke="#999" stroke-width="1.5"/>

  <!-- 下顎の歯（右から左：48-41, 31-38） -->

  <!-- 右下顎 -->
  <!-- 48 大臼歯（2本根） -->
  <path d="M 64,330 Q 51,330 51,352 L 53,365 L 56,385 L 57,400 L 60,400 L 60,385 Q 60,372 64,365 Q 68,372 68,385 L 68,400 L 71,400 L 72,385 L 75,365 L 77,352 Q 77,330 64,330 Z" fill="white" stroke="black" stroke-width="0.8"/>
  <circle cx="64" cy="312" r="8" fill="white" stroke="#999" stroke-width="0.8"/>
  <text x="64" y="415" font-size="11" text-anchor="middle" fill="#666" font-family="Arial">8</text>

  <!-- 47 大臼歯（2本根） -->
  <path d="M 96,330 Q 83,330 83,352 L 85,365 L 88,385 L 89,400 L 92,400 L 92,385 Q 92,372 96,365 Q 100,372 100,385 L 100,400 L 103,400 L 104,385 L 107,365 L 109,352 Q 109,330 96,330 Z" fill="white" stroke="black" stroke-width="0.8"/>
  <circle cx="96" cy="312" r="8" fill="white" stroke="#999" stroke-width="0.8"/>
  <text x="96" y="415" font-size="11" text-anchor="middle" fill="#666" font-family="Arial">7</text>

  <!-- 46 大臼歯（2本根） -->
  <path d="M 128,330 Q 115,330 115,352 L 117,365 L 120,385 L 121,400 L 124,400 L 124,385 Q 124,372 128,365 Q 132,372 132,385 L 132,400 L 135,400 L 136,385 L 139,365 L 141,352 Q 141,330 128,330 Z" fill="white" stroke="black" stroke-width="0.8"/>
  <circle cx="128" cy="312" r="8" fill="white" stroke="#999" stroke-width="0.8"/>
  <text x="128" y="415" font-size="11" text-anchor="middle" fill="#666" font-family="Arial">6</text>

  <!-- 45 小臼歯（根伸びる） -->
  <path d="M 156,330 Q 145,330 145,348 L 145,360 Q 148,380 156,400 Q 164,380 167,360 L 167,348 Q 167,330 156,330 Z" fill="white" stroke="black" stroke-width="0.8"/>
  <circle cx="156" cy="312" r="8" fill="white" stroke="#999" stroke-width="0.8"/>
  <text x="156" y="415" font-size="11" text-anchor="middle" fill="#666" font-family="Arial">5</text>

  <!-- 44 小臼歯（根伸びる） -->
  <path d="M 184,330 Q 173,330 173,348 L 173,360 Q 176,380 184,400 Q 192,380 195,360 L 195,348 Q 195,330 184,330 Z" fill="white" stroke="black" stroke-width="0.8"/>
  <circle cx="184" cy="312" r="8" fill="white" stroke="#999" stroke-width="0.8"/>
  <text x="184" y="415" font-size="11" text-anchor="middle" fill="#666" font-family="Arial">4</text>

  <!-- 43 犬歯（根尖） -->
  <path d="M 199,330 L 219,330 L 219,348 L 218,372 L 209,400 L 200,372 L 199,348 Z" fill="white" stroke="black" stroke-width="0.8"/>
  <circle cx="209" cy="312" r="8" fill="white" stroke="#999" stroke-width="0.8"/>
  <text x="209" y="415" font-size="11" text-anchor="middle" fill="#666" font-family="Arial">3</text>

  <!-- 42 切歯（根尖） -->
  <path d="M 226,330 L 242,330 L 242,348 L 239,375 L 234,400 L 229,375 L 226,348 Z" fill="white" stroke="black" stroke-width="0.8"/>
  <circle cx="234" cy="312" r="8" fill="white" stroke="#999" stroke-width="0.8"/>
  <text x="234" y="415" font-size="11" text-anchor="middle" fill="#666" font-family="Arial">2</text>

  <!-- 41 切歯（根尖） -->
  <path d="M 248,330 L 264,330 L 264,348 L 261,375 L 256,400 L 251,375 L 248,348 Z" fill="white" stroke="black" stroke-width="0.8"/>
  <circle cx="256" cy="312" r="8" fill="white" stroke="#999" stroke-width="0.8"/>
  <text x="256" y="415" font-size="11" text-anchor="middle" fill="#666" font-family="Arial">1</text>

  <!-- 正中線（下顎） -->
  <line x1="272" y1="300" x2="272" y2="430" stroke="#999" stroke-width="1" stroke-dasharray="4,3"/>

  <!-- 左下顎 -->
  <!-- 31 切歯（根尖） -->
  <path d="M 280,330 L 296,330 L 296,348 L 293,375 L 288,400 L 283,375 L 280,348 Z" fill="white" stroke="black" stroke-width="0.8"/>
  <circle cx="288" cy="312" r="8" fill="white" stroke="#999" stroke-width="0.8"/>
  <text x="288" y="415" font-size="11" text-anchor="middle" fill="#666" font-family="Arial">1</text>

  <!-- 32 切歯（根尖） -->
  <path d="M 302,330 L 318,330 L 318,348 L 315,375 L 310,400 L 305,375 L 302,348 Z" fill="white" stroke="black" stroke-width="0.8"/>
  <circle cx="310" cy="312" r="8" fill="white" stroke="#999" stroke-width="0.8"/>
  <text x="310" y="415" font-size="11" text-anchor="middle" fill="#666" font-family="Arial">2</text>

  <!-- 33 犬歯（根尖） -->
  <path d="M 326,330 L 346,330 L 346,348 L 345,372 L 336,400 L 327,372 L 326,348 Z" fill="white" stroke="black" stroke-width="0.8"/>
  <circle cx="336" cy="312" r="8" fill="white" stroke="#999" stroke-width="0.8"/>
  <text x="336" y="415" font-size="11" text-anchor="middle" fill="#666" font-family="Arial">3</text>

  <!-- 34 小臼歯（根伸びる） -->
  <path d="M 360,330 Q 349,330 349,348 L 349,360 Q 352,380 360,400 Q 368,380 371,360 L 371,348 Q 371,330 360,330 Z" fill="white" stroke="black" stroke-width="0.8"/>
  <circle cx="360" cy="312" r="8" fill="white" stroke="#999" stroke-width="0.8"/>
  <text x="360" y="415" font-size="11" text-anchor="middle" fill="#666" font-family="Arial">4</text>

  <!-- 35 小臼歯（根伸びる） -->
  <path d="M 388,330 Q 377,330 377,348 L 377,360 Q 380,380 388,400 Q 396,380 399,360 L 399,348 Q 399,330 388,330 Z" fill="white" stroke="black" stroke-width="0.8"/>
  <circle cx="388" cy="312" r="8" fill="white" stroke="#999" stroke-width="0.8"/>
  <text x="388" y="415" font-size="11" text-anchor="middle" fill="#666" font-family="Arial">5</text>

  <!-- 36 大臼歯（2本根） -->
  <path d="M 416,330 Q 403,330 403,352 L 405,365 L 408,385 L 409,400 L 412,400 L 412,385 Q 412,372 416,365 Q 420,372 420,385 L 420,400 L 423,400 L 424,385 L 427,365 L 429,352 Q 429,330 416,330 Z" fill="white" stroke="black" stroke-width="0.8"/>
  <circle cx="416" cy="312" r="8" fill="white" stroke="#999" stroke-width="0.8"/>
  <text x="416" y="415" font-size="11" text-anchor="middle" fill="#666" font-family="Arial">6</text>

  <!-- 37 大臼歯（2本根） -->
  <path d="M 448,330 Q 435,330 435,352 L 437,365 L 440,385 L 441,400 L 444,400 L 444,385 Q 444,372 448,365 Q 452,372 452,385 L 452,400 L 455,400 L 456,385 L 459,365 L 461,352 Q 461,330 448,330 Z" fill="white" stroke="black" stroke-width="0.8"/>
  <circle cx="448" cy="312" r="8" fill="white" stroke="#999" stroke-width="0.8"/>
  <text x="448" y="415" font-size="11" text-anchor="middle" fill="#666" font-family="Arial">7</text>

  <!-- 38 大臼歯（2本根） -->
  <path d="M 480,330 Q 467,330 467,352 L 469,365 L 472,385 L 473,400 L 476,400 L 476,385 Q 476,372 480,365 Q 484,372 484,385 L 484,400 L 487,400 L 488,385 L 491,365 L 493,352 Q 493,330 480,330 Z" fill="white" stroke="black" stroke-width="0.8"/>
  <circle cx="480" cy="312" r="8" fill="white" stroke="#999" stroke-width="0.8"/>
  <text x="480" y="415" font-size="11" text-anchor="middle" fill="#666" font-family="Arial">8</text>
</svg>
